<?xml version="1.0" encoding="utf-8"?>
<!-- Generator: Adobe Illustrator 16.0.0, SVG Export Plug-In . SVG Version: 6.00 Build 0)  -->
<!DOCTYPE svg PUBLIC "-//W3C//DTD SVG 1.1//EN" "http://www.w3.org/Graphics/SVG/1.1/DTD/svg11.dtd">
<svg version="1.1" id="Capa_1" xmlns="http://www.w3.org/2000/svg" xmlns:xlink="http://www.w3.org/1999/xlink" x="0px" y="0px"
	 width="200px" height="200px" viewBox="0 0 200 200" enable-background="new 0 0 200 200" xml:space="preserve">
<g>
	<g>
		<g>
			<path fill="#13AA83" d="M100,0C44.771,0,0,44.771,0,100s44.771,100,100,100s100-44.771,100-100
				C199.936,44.798,155.202,0.064,100,0z M100,193.549c-51.666,0-93.548-41.883-93.548-93.549C6.452,48.334,48.334,6.452,100,6.452
				c51.666,0,93.549,41.883,93.549,93.548C193.492,151.643,151.643,193.492,100,193.549z"/>
			<path fill="#13AA83" d="M149.332,63.849L83.871,129.31L50.668,96.106c-1.282-1.238-3.324-1.203-4.562,0.079
				c-1.207,1.25-1.207,3.232,0,4.482l35.484,35.483c1.26,1.26,3.302,1.26,4.561,0l67.742-67.742
				c1.237-1.281,1.202-3.323-0.079-4.561C152.564,62.641,150.582,62.641,149.332,63.849z"/>
		</g>
	</g>
</g>
</svg>
