<?xml version="1.0" encoding="utf-8"?>
<!-- Generator: Adobe Illustrator 16.0.0, SVG Export Plug-In . SVG Version: 6.00 Build 0)  -->
<!DOCTYPE svg PUBLIC "-//W3C//DTD SVG 1.1//EN" "http://www.w3.org/Graphics/SVG/1.1/DTD/svg11.dtd">
<svg version="1.1" id="Layer_1" xmlns="http://www.w3.org/2000/svg" xmlns:xlink="http://www.w3.org/1999/xlink" x="0px" y="0px"
	 width="511px" height="511px" viewBox="0 0 511 511" enable-background="new 0 0 511 511" xml:space="preserve">
<path fill="#494949" d="M336.154,63.918c-101.633,0-145.142-55.197-146.9-57.481c-2.768-3.715-7.018-6.047-11.637-6.386
	c-4.624-0.371-9.174,1.325-12.425,4.631C121.648,48.273,15.61,63.918,14.542,64.078c-7.864,1.131-13.7,7.864-13.7,15.809v247.028
	c0.144,50.437,26.588,97.142,69.762,123.22l97.653,58.585c5.064,3.041,11.388,3.041,16.448,0l97.657-58.585
	c43.173-26.078,69.613-72.783,69.762-123.22V79.887C352.123,71.068,344.973,63.918,336.154,63.918z"/>
<path fill="#FFFFFF" d="M107.933,260.206l-22.577,22.577l47.902,47.902c6.234,6.233,16.343,6.233,22.577,0l127.739-127.739
	l-22.578-22.577L144.549,296.818L107.933,260.206z"/>
</svg>
