<?xml version="1.0" encoding="utf-8"?>
<!-- Generator: Adobe Illustrator 16.0.0, SVG Export Plug-In . SVG Version: 6.00 Build 0)  -->
<!DOCTYPE svg PUBLIC "-//W3C//DTD SVG 1.1//EN" "http://www.w3.org/Graphics/SVG/1.1/DTD/svg11.dtd">
<svg version="1.1" id="Layer_1" xmlns="http://www.w3.org/2000/svg" xmlns:xlink="http://www.w3.org/1999/xlink" x="0px" y="0px"
	 width="200px" height="200px" viewBox="0 0 200 200" enable-background="new 0 0 200 200" xml:space="preserve">
<rect x="88.574" y="30.648" transform="matrix(0.2553 -0.9669 0.9669 0.2553 51.3947 165.3047)" fill="#FCD462" width="88.863" height="37.283"/>
<rect x="124.624" y="40.181" transform="matrix(0.2553 -0.9669 0.9669 0.2553 69.0242 207.2591)" fill="#F6C358" width="88.862" height="37.283"/>
<g>
	<polygon fill="#DC8744" points="175.747,106.519 103.642,87.479 144.092,80.352 	"/>
	<path fill="#DC8744" d="M143.828,11.582c1.373,0,2.482,1.112,2.482,2.485c0,1.372-1.109,2.486-2.482,2.486
		c-1.374,0-2.486-1.114-2.486-2.486C141.342,12.694,142.454,11.582,143.828,11.582z"/>
	<ellipse fill="#DC8744" cx="177.043" cy="22.843" rx="2.486" ry="2.486"/>
	<path fill="#DC8744" d="M152.6,48.121c-10.019-2.646-15.901-13.383-13.117-23.935l2.955-11.194l3.126,0.824l-2.955,11.194
		c-2.335,8.83,2.521,17.797,10.815,19.987c8.3,2.192,16.945-3.209,19.277-12.041l2.958-11.194l3.122,0.825l-2.957,11.195
		C173.039,44.333,162.621,50.767,152.6,48.121z"/>
</g>
<path fill="#FFFFFF" d="M153.018,46.539c-10.02-2.646-16.018-12.949-13.373-22.97l2.793-10.578l3.126,0.824l-2.796,10.579
	c-2.188,8.297,2.779,16.831,11.076,19.021c8.297,2.192,16.83-2.776,19.02-11.074l2.796-10.579l3.122,0.825l-2.793,10.578
	C173.341,43.186,163.039,49.185,153.018,46.539z"/>
<path fill="#FCD462" d="M88.148,17.289c-1.593-3.222-8.289-7.167-11.848-5.012c-9.302,5.63-9.114,18.606-9.114,18.606
	s7.13-4.801,12.313-9.931C79.497,20.952,85.598,14.561,88.148,17.289z"/>
<path fill="#44C4A1" d="M84.842,15.799c-2.719,0.93-5.516,3.773-6.056,4.341c-3.466,3.411-8.215,7.318-10.724,9.166
	c0.336-2.671,1.983-11.926,8.919-16.11c0.069-0.042,0.151-0.076,0.238-0.113c0.096-0.041,0.195-0.084,0.295-0.142
	c0.765-0.44,3.267-0.627,4.639-0.53c-0.588-0.238-1.183-0.427-1.77-0.556c-1.237,0.067-2.552,0.258-3.149,0.603
	c-0.076,0.044-0.155,0.077-0.235,0.11c-0.1,0.044-0.205,0.088-0.308,0.15c-7.926,4.783-9.146,15.909-9.258,17.163l-0.054,0.604
	l0.496-0.353c2.337-1.657,7.566-5.913,11.323-9.612c0.518-0.544,3.245-3.297,5.824-4.191c0.814-0.279,1.663-0.338,2.217-0.367
	c-0.151-0.177-0.313-0.354-0.486-0.529C86.206,15.475,85.521,15.566,84.842,15.799z"/>
<path fill="#F6C358" d="M79.497,20.952c-5.181,5.129-12.311,9.931-12.311,9.931l16.385-6.954c0,0,5.38-2.854,4.893-5.718
	c-0.049-0.295-0.159-0.605-0.315-0.921C85.598,14.561,79.497,20.952,79.497,20.952z"/>
<path fill="#FCD462" d="M43.352,33.804c-0.879-3.485,1.655-10.832,5.761-11.504c10.73-1.756,19.009,8.237,19.009,8.237
	s-8.54,0.977-15.812,0.438C52.311,30.975,43.521,30.072,43.352,33.804z"/>
<path fill="#44C4A1" d="M44.899,30.524c2.672-1.058,6.646-0.709,7.424-0.629c4.852,0.346,11,0.235,14.108,0.011
	c-1.99-1.811-9.25-7.783-17.244-6.464c-0.078,0.013-0.163,0.04-0.254,0.067c-0.099,0.032-0.202,0.063-0.314,0.085
	c-0.868,0.159-2.892,1.642-3.874,2.606c0.292-0.562,0.624-1.091,0.986-1.572c0.984-0.751,2.109-1.459,2.786-1.584
	c0.085-0.017,0.169-0.042,0.25-0.069c0.104-0.032,0.214-0.066,0.331-0.086c9.135-1.508,17.285,6.166,18.183,7.046l0.434,0.424
	l-0.607,0.055c-2.854,0.255-9.593,0.412-14.853,0.037c-0.747-0.077-4.61-0.401-7.152,0.593c-0.799,0.315-1.483,0.822-1.924,1.159
	c0-0.233,0.008-0.472,0.027-0.718C43.653,31.164,44.232,30.788,44.899,30.524z"/>
<path fill="#F6C358" d="M52.311,30.975c7.271,0.539,15.812-0.438,15.812-0.438l-16.979,5.346c0,0-5.945,1.322-7.433-1.173
	c-0.154-0.257-0.272-0.564-0.358-0.906C43.521,30.072,52.311,30.975,52.311,30.975z"/>
<rect x="34.273" y="29.925" transform="matrix(0.9383 -0.3459 0.3459 0.9383 -8.2318 26.3374)" fill="#E56353" width="70.811" height="12.617"/>
<rect x="45.612" y="40.788" transform="matrix(0.9383 -0.3459 0.3459 0.9383 -16.8499 31.3884)" fill="#D15241" width="67.822" height="44.236"/>
<polygon fill="#CE412D" points="104.763,33.327 41.134,56.811 40.056,53.885 103.691,30.425 "/>
<rect x="71.253" y="28.562" transform="matrix(0.9383 -0.3459 0.3459 0.9383 -14.9369 30.2684)" fill="#FCD462" width="12.173" height="56.846"/>
<g>
	
		<rect x="72.987" y="29.964" transform="matrix(0.9381 -0.3464 0.3464 0.9381 -15.6713 29.0849)" fill="#44C4A1" width="1.102" height="56.846"/>
	
		<rect x="80.603" y="27.152" transform="matrix(0.9383 -0.3459 0.3459 0.9383 -14.2146 31.5053)" fill="#44C4A1" width="1.104" height="56.845"/>
</g>
<path fill="#F6C358" d="M65.644,50.651c0.019-3.327-1.174-5.489-3.284-9.711c-4.172,2.269-6.402,3.366-8.311,6.105
	c2.197-7.985,4.876-12.014,9.879-18.652c1.762,0.548,2.642,0.823,4.405,1.371C68.594,38.04,68.462,42.86,65.644,50.651z"/>
<g>
	<path fill="#44C4A1" d="M64.719,28.639c-0.058-0.018-0.11-0.034-0.169-0.052c-0.029-0.009-0.062-0.019-0.091-0.029
		c-3.397,4.823-7.014,10.611-8.542,16.375c0.483-0.43,1.005-0.824,1.579-1.208c1.983-6.222,4.204-9.441,7.363-15.042
		C64.803,28.665,64.762,28.652,64.719,28.639z"/>
	<path fill="#44C4A1" d="M67.802,29.597c-0.03-0.009-0.063-0.019-0.092-0.029c-0.058-0.018-0.111-0.034-0.167-0.052
		c-0.044-0.014-0.083-0.026-0.14-0.042c-0.651,6.381-0.689,10.279-2.664,16.503c0.249,0.64,0.448,1.259,0.596,1.885
		C67.415,42.271,67.798,35.476,67.802,29.597z"/>
</g>
<path fill="#F6C358" d="M81.754,44.712c-2.174-2.519-2.669-4.938-3.807-9.519c4.647-0.982,7.054-1.596,10.284-0.751
	c-6.854-4.648-11.506-5.972-19.621-7.776c-0.986,1.562-1.478,2.341-2.462,3.903C71.323,37.033,74.551,40.615,81.754,44.712z"/>
<g>
	<path fill="#44C4A1" d="M68.169,27.367c0.031-0.051,0.06-0.098,0.093-0.148c0.017-0.026,0.034-0.055,0.051-0.081
		c5.715,1.464,12.223,3.519,17.127,6.91c-0.646-0.012-1.299,0.026-1.986,0.106c-5.546-3.445-9.326-4.454-15.365-6.663
		C68.122,27.441,68.144,27.406,68.169,27.367z"/>
	<path fill="#44C4A1" d="M66.445,30.097c0.017-0.026,0.036-0.055,0.051-0.081c0.033-0.052,0.062-0.099,0.095-0.148
		c0.023-0.038,0.047-0.074,0.078-0.125c4.638,4.433,7.197,7.372,12.738,10.825c0.228,0.65,0.477,1.25,0.771,1.822
		C74.966,39.486,70.266,34.567,66.445,30.097z"/>
</g>
<path fill="#DC8744" d="M65.818,25.73c-2.525,0.931-3.822,3.719-2.896,6.228l9.143-3.37C71.139,26.079,68.343,24.799,65.818,25.73z"
	/>
<circle fill="#64798A" cx="75.491" cy="184.164" r="14.267"/>
<circle fill="#EBF0F3" cx="75.491" cy="184.164" r="8.002"/>
<circle fill="#64798A" cx="165.9" cy="184.164" r="14.267"/>
<g>
	<circle fill="#131414" cx="165.9" cy="184.164" r="8.002"/>
	<path fill="#131414" d="M35.59,48.286v6.262h23.933V64.66H38.838v6.262h20.685v10.88H43.437v6.262h16.086v10.879H46.957v6.263
		h12.566v10.879h-8.237v6.262h8.237v16.268l-3.665,0.357l0.605,6.231l121.58-11.856l20.39-85.06H35.59z M188.07,64.66h-23.768
		V54.549h26.192L188.07,64.66z M115.045,98.943v-10.88h18.368v10.88H115.045z M133.413,105.205v10.879h-18.368v-10.879H133.413z
		 M115.045,81.802v-10.88h18.368v10.88H115.045z M139.675,70.922h18.366v10.88h-18.366V70.922z M139.675,64.66V54.549h18.366V64.66
		H139.675z M133.413,64.66h-18.368V54.549h18.368V64.66z M108.783,64.66H90.417V54.549h18.367V64.66z M108.783,70.922v10.88H90.417
		v-10.88H108.783z M108.783,88.063v10.88H90.417v-10.88H108.783z M108.783,105.205v10.879H90.417v-10.879H108.783z M108.783,122.349
		v11.458l-18.367,1.794v-13.252H108.783z M115.045,122.349h18.368v9.058l-18.368,1.791V122.349z M139.675,122.349h18.366v6.657
		l-18.366,1.791V122.349z M139.675,116.084v-10.879h18.366v10.879H139.675z M139.675,98.943v-10.88h18.366v10.88H139.675z
		 M164.303,88.063h18.156l-2.609,10.88h-15.547V88.063z M164.303,81.802v-10.88h22.265l-2.608,10.88H164.303z M65.786,54.549h18.367
		V64.66H65.786V54.549z M65.786,70.922h18.367v10.88H65.786V70.922z M65.786,88.063h18.367v10.88H65.786V88.063z M65.786,105.205
		h18.367v10.879H65.786V105.205z M65.786,122.349h18.367v13.861l-18.367,1.794V122.349z M164.303,128.394v-6.045h9.937l-1.247,5.196
		L164.303,128.394z M175.741,116.084h-11.438v-10.879h14.048L175.741,116.084z"/>
</g>
<path fill="#1C75A1" d="M187.957,159.195H56.013c-3.617,0-6.549-2.934-6.549-6.551v-0.387c0-3.379,2.556-6.237,5.919-6.523
	c1.143-0.096,2.185-0.684,2.851-1.604c0.651-0.901,0.883-2.041,0.633-3.128L31.781,24.033H17.287v6.263h9.517l25.403,109.717
	c-5.28,1.615-9.006,6.487-9.006,12.244v0.387c0,7.075,5.737,12.813,12.813,12.813h131.944c1.73,0,3.132-1.403,3.132-3.131
	C191.089,160.596,189.688,159.195,187.957,159.195z"/>
<path fill="#E56353" d="M6.077,22.663c-2.491,0-4.51,2.019-4.51,4.51c0,2.49,2.019,4.509,4.51,4.509h16.825v-9.019H6.077z"/>
</svg>
